#tb 0: 1/1000
0,          0,          0,        0,     1536, 117915db1856cee26f05a609c8c8de2e
0,         33,         33,        0,     1536, 943771a98b26b174e88ed1f4e872e504
0,         66,         66,        0,     1536, 3e0d2585e1f1cb540998d107aca5c395
0,        100,        100,        0,     1536, e64a9e1e0232983a69ab48453025b23d
0,        133,        133,        0,     1536, 2c6ef6637fb7b9425f7d7ea28cd84087
0,        166,        166,        0,     1536, 419a5a31a43955d408c13ee8a5ddce9c
0,        200,        200,        0,     1536, 2ab13e1c236553d42d59498ca350b190
0,        233,        233,        0,     1536, b8068beb037f3232d4da38fe33a8a885
0,        266,        266,        0,     1536, 160df68b9e3f75e9b1f8ed7cce327bc2
0,        300,        300,        0,     1536, 1ccafa8c7babdce0983aeb20d298b0ee
